<svg width="76" height="76" viewBox="0 0 76 76" fill="none" xmlns="http://www.w3.org/2000/svg">
<g filter="url(#filter0_dd_116_6272)">
<rect x="9" y="5" width="58" height="58" rx="20" fill="white" fill-opacity="0.2"/>
<path d="M33.125 24.25H28.625C28.4179 24.25 28.25 24.4179 28.25 24.625V29.125C28.25 29.3321 28.4179 29.5 28.625 29.5H33.125C33.3321 29.5 33.5 29.3321 33.5 29.125V24.625C33.5 24.4179 33.3321 24.25 33.125 24.25Z" fill="white"/>
<path d="M40.25 24.25H35.75C35.5429 24.25 35.375 24.4179 35.375 24.625V29.125C35.375 29.3321 35.5429 29.5 35.75 29.5H40.25C40.4571 29.5 40.625 29.3321 40.625 29.125V24.625C40.625 24.4179 40.4571 24.25 40.25 24.25Z" fill="white"/>
<path d="M47.375 24.25H42.875C42.6679 24.25 42.5 24.4179 42.5 24.625V29.125C42.5 29.3321 42.6679 29.5 42.875 29.5H47.375C47.5821 29.5 47.75 29.3321 47.75 29.125V24.625C47.75 24.4179 47.5821 24.25 47.375 24.25Z" fill="white"/>
<path d="M33.125 31.3752H28.625C28.4179 31.3752 28.25 31.5431 28.25 31.7502V36.2502C28.25 36.4574 28.4179 36.6252 28.625 36.6252H33.125C33.3321 36.6252 33.5 36.4574 33.5 36.2502V31.7502C33.5 31.5431 33.3321 31.3752 33.125 31.3752Z" fill="white"/>
<path d="M40.25 31.3752H35.75C35.5429 31.3752 35.375 31.5431 35.375 31.7502V36.2502C35.375 36.4574 35.5429 36.6252 35.75 36.6252H40.25C40.4571 36.6252 40.625 36.4574 40.625 36.2502V31.7502C40.625 31.5431 40.4571 31.3752 40.25 31.3752Z" fill="white"/>
<path d="M47.375 31.3752H42.875C42.6679 31.3752 42.5 31.5431 42.5 31.7502V36.2502C42.5 36.4574 42.6679 36.6252 42.875 36.6252H47.375C47.5821 36.6252 47.75 36.4574 47.75 36.2502V31.7502C47.75 31.5431 47.5821 31.3752 47.375 31.3752Z" fill="white"/>
<path d="M33.125 38.5002H28.625C28.4179 38.5002 28.25 38.6681 28.25 38.8752V43.3752C28.25 43.5824 28.4179 43.7502 28.625 43.7502H33.125C33.3321 43.7502 33.5 43.5824 33.5 43.3752V38.8752C33.5 38.6681 33.3321 38.5002 33.125 38.5002Z" fill="white"/>
<path d="M40.25 38.5002H35.75C35.5429 38.5002 35.375 38.6681 35.375 38.8752V43.3752C35.375 43.5824 35.5429 43.7502 35.75 43.7502H40.25C40.4571 43.7502 40.625 43.5824 40.625 43.3752V38.8752C40.625 38.6681 40.4571 38.5002 40.25 38.5002Z" fill="white"/>
<path d="M47.375 38.5002H42.875C42.6679 38.5002 42.5 38.6681 42.5 38.8752V43.3752C42.5 43.5824 42.6679 43.7502 42.875 43.7502H47.375C47.5821 43.7502 47.75 43.5824 47.75 43.3752V38.8752C47.75 38.6681 47.5821 38.5002 47.375 38.5002Z" fill="white"/>
</g>
<defs>
<filter id="filter0_dd_116_6272" x="0" y="0" width="76" height="76" filterUnits="userSpaceOnUse" color-interpolation-filters="sRGB">
<feFlood flood-opacity="0" result="BackgroundImageFix"/>
<feColorMatrix in="SourceAlpha" type="matrix" values="0 0 0 0 0 0 0 0 0 0 0 0 0 0 0 0 0 0 127 0" result="hardAlpha"/>
<feOffset dy="4"/>
<feGaussianBlur stdDeviation="4.5"/>
<feColorMatrix type="matrix" values="0 0 0 0 0.921569 0 0 0 0 0.992157 0 0 0 0 1 0 0 0 0.11 0"/>
<feBlend mode="normal" in2="BackgroundImageFix" result="effect1_dropShadow_116_6272"/>
<feColorMatrix in="SourceAlpha" type="matrix" values="0 0 0 0 0 0 0 0 0 0 0 0 0 0 0 0 0 0 127 0" result="hardAlpha"/>
<feOffset/>
<feGaussianBlur stdDeviation="1"/>
<feColorMatrix type="matrix" values="0 0 0 0 0.921569 0 0 0 0 0.992157 0 0 0 0 1 0 0 0 0.12 0"/>
<feBlend mode="normal" in2="effect1_dropShadow_116_6272" result="effect2_dropShadow_116_6272"/>
<feBlend mode="normal" in="SourceGraphic" in2="effect2_dropShadow_116_6272" result="shape"/>
</filter>
</defs>
</svg>
