<svg width="58" height="58" viewBox="0 0 58 58" fill="none" xmlns="http://www.w3.org/2000/svg">
<rect width="58" height="58" rx="20" fill="white" fill-opacity="0.2"/>
<rect width="58" height="58" rx="20" fill="url(#paint0_linear_116_6504)"/>
<path d="M24.1251 19.25H19.6251C19.418 19.25 19.2501 19.4179 19.2501 19.625V24.125C19.2501 24.3321 19.418 24.5 19.6251 24.5H24.1251C24.3322 24.5 24.5001 24.3321 24.5001 24.125V19.625C24.5001 19.4179 24.3322 19.25 24.1251 19.25Z" fill="white"/>
<path d="M31.2501 19.25H26.7501C26.543 19.25 26.3751 19.4179 26.3751 19.625V24.125C26.3751 24.3321 26.543 24.5 26.7501 24.5H31.2501C31.4572 24.5 31.6251 24.3321 31.6251 24.125V19.625C31.6251 19.4179 31.4572 19.25 31.2501 19.25Z" fill="white"/>
<path d="M38.3752 19.25H33.8752C33.6681 19.25 33.5002 19.4179 33.5002 19.625V24.125C33.5002 24.3321 33.6681 24.5 33.8752 24.5H38.3752C38.5824 24.5 38.7502 24.3321 38.7502 24.125V19.625C38.7502 19.4179 38.5824 19.25 38.3752 19.25Z" fill="white"/>
<path d="M24.1251 26.3752H19.6251C19.418 26.3752 19.2501 26.5431 19.2501 26.7502V31.2502C19.2501 31.4574 19.418 31.6252 19.6251 31.6252H24.1251C24.3322 31.6252 24.5001 31.4574 24.5001 31.2502V26.7502C24.5001 26.5431 24.3322 26.3752 24.1251 26.3752Z" fill="white"/>
<path d="M31.2501 26.3752H26.7501C26.543 26.3752 26.3751 26.5431 26.3751 26.7502V31.2502C26.3751 31.4574 26.543 31.6252 26.7501 31.6252H31.2501C31.4572 31.6252 31.6251 31.4574 31.6251 31.2502V26.7502C31.6251 26.5431 31.4572 26.3752 31.2501 26.3752Z" fill="white"/>
<path d="M38.3752 26.3752H33.8752C33.6681 26.3752 33.5002 26.5431 33.5002 26.7502V31.2502C33.5002 31.4574 33.6681 31.6252 33.8752 31.6252H38.3752C38.5824 31.6252 38.7502 31.4574 38.7502 31.2502V26.7502C38.7502 26.5431 38.5824 26.3752 38.3752 26.3752Z" fill="white"/>
<path d="M24.1251 33.5002H19.6251C19.418 33.5002 19.2501 33.6681 19.2501 33.8752V38.3752C19.2501 38.5824 19.418 38.7502 19.6251 38.7502H24.1251C24.3322 38.7502 24.5001 38.5824 24.5001 38.3752V33.8752C24.5001 33.6681 24.3322 33.5002 24.1251 33.5002Z" fill="white"/>
<path d="M31.2501 33.5002H26.7501C26.543 33.5002 26.3751 33.6681 26.3751 33.8752V38.3752C26.3751 38.5824 26.543 38.7502 26.7501 38.7502H31.2501C31.4572 38.7502 31.6251 38.5824 31.6251 38.3752V33.8752C31.6251 33.6681 31.4572 33.5002 31.2501 33.5002Z" fill="white"/>
<path d="M38.3752 33.5002H33.8752C33.6681 33.5002 33.5002 33.6681 33.5002 33.8752V38.3752C33.5002 38.5824 33.6681 38.7502 33.8752 38.7502H38.3752C38.5824 38.7502 38.7502 38.5824 38.7502 38.3752V33.8752C38.7502 33.6681 38.5824 33.5002 38.3752 33.5002Z" fill="white"/>
<defs>
<linearGradient id="paint0_linear_116_6504" x1="0" y1="58" x2="58" y2="58" gradientUnits="userSpaceOnUse">
<stop stop-color="#007DF0"/>
<stop offset="1" stop-color="#653AC1"/>
</linearGradient>
</defs>
</svg>
