<svg width="56" height="55" viewBox="0 0 56 55" fill="none" xmlns="http://www.w3.org/2000/svg">
<g filter="url(#filter0_d_893_6173)">
<rect x="6" y="2" width="44" height="44" rx="12" fill="white"/>
<path d="M20.875 35.2505H19.375C19.0766 35.2505 18.7905 35.132 18.5795 34.921C18.3685 34.71 18.25 34.4239 18.25 34.1255V27.3755C18.25 27.0771 18.3685 26.791 18.5795 26.58C18.7905 26.369 19.0766 26.2505 19.375 26.2505H20.875C21.1734 26.2505 21.4595 26.369 21.6705 26.58C21.8815 26.791 22 27.0771 22 27.3755V34.1255C22 34.4239 21.8815 34.71 21.6705 34.921C21.4595 35.132 21.1734 35.2505 20.875 35.2505V35.2505Z" fill="#0097FF"/>
<path d="M31.375 35.2493H29.875C29.5766 35.2493 29.2905 35.1307 29.0795 34.9198C28.8685 34.7088 28.75 34.4226 28.75 34.1243V22.8743C28.75 22.5759 28.8685 22.2898 29.0795 22.0788C29.2905 21.8678 29.5766 21.7493 29.875 21.7493H31.375C31.6734 21.7493 31.9595 21.8678 32.1705 22.0788C32.3815 22.2898 32.5 22.5759 32.5 22.8743V34.1243C32.5 34.4226 32.3815 34.7088 32.1705 34.9198C31.9595 35.1307 31.6734 35.2493 31.375 35.2493V35.2493Z" fill="#0097FF"/>
<path d="M36.625 35.25H35.125C34.8266 35.25 34.5405 35.1315 34.3295 34.9205C34.1185 34.7095 34 34.4234 34 34.125V17.625C34 17.3266 34.1185 17.0405 34.3295 16.8295C34.5405 16.6185 34.8266 16.5 35.125 16.5H36.625C36.9234 16.5 37.2095 16.6185 37.4205 16.8295C37.6315 17.0405 37.75 17.3266 37.75 17.625V34.125C37.75 34.4234 37.6315 34.7095 37.4205 34.9205C37.2095 35.1315 36.9234 35.25 36.625 35.25V35.25Z" fill="#0097FF"/>
<path d="M26.125 35.2495H24.625C24.3266 35.2495 24.0405 35.131 23.8295 34.92C23.6185 34.709 23.5 34.4229 23.5 34.1245V13.8745C23.5 13.5761 23.6185 13.29 23.8295 13.079C24.0405 12.868 24.3266 12.7495 24.625 12.7495H26.125C26.4234 12.7495 26.7095 12.868 26.9205 13.079C27.1315 13.29 27.25 13.5761 27.25 13.8745V34.1245C27.25 34.4229 27.1315 34.709 26.9205 34.92C26.7095 35.131 26.4234 35.2495 26.125 35.2495V35.2495Z" fill="#0097FF"/>
</g>
<defs>
<filter id="filter0_d_893_6173" x="0.5" y="-2.38419e-07" width="55" height="55" filterUnits="userSpaceOnUse" color-interpolation-filters="sRGB">
<feFlood flood-opacity="0" result="BackgroundImageFix"/>
<feColorMatrix in="SourceAlpha" type="matrix" values="0 0 0 0 0 0 0 0 0 0 0 0 0 0 0 0 0 0 127 0" result="hardAlpha"/>
<feOffset dy="3.5"/>
<feGaussianBlur stdDeviation="2.75"/>
<feColorMatrix type="matrix" values="0 0 0 0 0 0 0 0 0 0 0 0 0 0 0 0 0 0 0.02 0"/>
<feBlend mode="normal" in2="BackgroundImageFix" result="effect1_dropShadow_893_6173"/>
<feBlend mode="normal" in="SourceGraphic" in2="effect1_dropShadow_893_6173" result="shape"/>
</filter>
</defs>
</svg>
