<svg width="56" height="55" viewBox="0 0 56 55" fill="none" xmlns="http://www.w3.org/2000/svg">
<g filter="url(#filter0_d_893_6188)">
<rect x="6" y="2" width="44" height="44" rx="12" fill="white"/>
<path d="M39.4375 30C39.7469 30 40 30.2531 40 30.5625V32.4375C40 32.7469 39.7469 33 39.4375 33H16.5625C16.2531 33 16 32.7469 16 32.4375V15.5625C16 15.2531 16.2531 15 16.5625 15H18.4375C18.7469 15 19 15.2531 19 15.5625V30H39.4375ZM33.4703 19.4766L29.5 22.125L25.5016 16.7953C25.2625 16.4766 24.775 16.5 24.5688 16.8422L20.5 23.625V28.5H38.5L34.2859 19.6969C34.1359 19.3922 33.7516 19.2891 33.4703 19.4766Z" fill="#0097FF"/>
</g>
<defs>
<filter id="filter0_d_893_6188" x="0.5" y="-2.38419e-07" width="55" height="55" filterUnits="userSpaceOnUse" color-interpolation-filters="sRGB">
<feFlood flood-opacity="0" result="BackgroundImageFix"/>
<feColorMatrix in="SourceAlpha" type="matrix" values="0 0 0 0 0 0 0 0 0 0 0 0 0 0 0 0 0 0 127 0" result="hardAlpha"/>
<feOffset dy="3.5"/>
<feGaussianBlur stdDeviation="2.75"/>
<feColorMatrix type="matrix" values="0 0 0 0 0 0 0 0 0 0 0 0 0 0 0 0 0 0 0.02 0"/>
<feBlend mode="normal" in2="BackgroundImageFix" result="effect1_dropShadow_893_6188"/>
<feBlend mode="normal" in="SourceGraphic" in2="effect1_dropShadow_893_6188" result="shape"/>
</filter>
</defs>
</svg>
