<svg width="56" height="56" viewBox="0 0 56 56" fill="none" xmlns="http://www.w3.org/2000/svg">
<g filter="url(#filter0_d_116_6368)">
<rect x="6" y="2.3335" width="44" height="44" rx="12" fill="white"/>
<path d="M39.4375 30.3335C39.7469 30.3335 40 30.5866 40 30.896V32.771C40 33.0804 39.7469 33.3335 39.4375 33.3335H16.5625C16.2531 33.3335 16 33.0804 16 32.771V15.896C16 15.5866 16.2531 15.3335 16.5625 15.3335H18.4375C18.7469 15.3335 19 15.5866 19 15.896V30.3335H39.4375ZM33.4703 19.8101L29.5 22.4585L25.5016 17.1288C25.2625 16.8101 24.775 16.8335 24.5688 17.1757L20.5 23.9585V28.8335H38.5L34.2859 20.0304C34.1359 19.7257 33.7516 19.6226 33.4703 19.8101Z" fill="#0097FF"/>
</g>
<defs>
<filter id="filter0_d_116_6368" x="0.5" y="0.333496" width="55" height="55" filterUnits="userSpaceOnUse" color-interpolation-filters="sRGB">
<feFlood flood-opacity="0" result="BackgroundImageFix"/>
<feColorMatrix in="SourceAlpha" type="matrix" values="0 0 0 0 0 0 0 0 0 0 0 0 0 0 0 0 0 0 127 0" result="hardAlpha"/>
<feOffset dy="3.5"/>
<feGaussianBlur stdDeviation="2.75"/>
<feColorMatrix type="matrix" values="0 0 0 0 0 0 0 0 0 0 0 0 0 0 0 0 0 0 0.02 0"/>
<feBlend mode="normal" in2="BackgroundImageFix" result="effect1_dropShadow_116_6368"/>
<feBlend mode="normal" in="SourceGraphic" in2="effect1_dropShadow_116_6368" result="shape"/>
</filter>
</defs>
</svg>
