<svg width="88" height="88" viewBox="0 0 88 88" fill="none" xmlns="http://www.w3.org/2000/svg">
<g filter="url(#filter0_di_116_8345)">
<g clip-path="url(#clip0_116_8345)">
<rect x="14" y="14" width="60" height="60" rx="12" fill="url(#paint0_linear_116_8345)" shape-rendering="crispEdges"/>
<g filter="url(#filter1_d_116_8345)">
<path d="M55.4375 50C55.7469 50 56 50.2531 56 50.5625V52.4375C56 52.7469 55.7469 53 55.4375 53H32.5625C32.2531 53 32 52.7469 32 52.4375V35.5625C32 35.2531 32.2531 35 32.5625 35H34.4375C34.7469 35 35 35.2531 35 35.5625V50H55.4375ZM49.4703 39.4766L45.5 42.125L41.5016 36.7953C41.2625 36.4766 40.775 36.5 40.5688 36.8422L36.5 43.625V48.5H54.5L50.2859 39.6969C50.1359 39.3922 49.7516 39.2891 49.4703 39.4766Z" fill="#0075FF"/>
</g>
</g>
<rect x="14.5" y="14.5" width="59" height="59" rx="11.5" stroke="url(#paint1_linear_116_8345)" style="mix-blend-mode:color-dodge" shape-rendering="crispEdges"/>
</g>
<defs>
<filter id="filter0_di_116_8345" x="0" y="0" width="88" height="88" filterUnits="userSpaceOnUse" color-interpolation-filters="sRGB">
<feFlood flood-opacity="0" result="BackgroundImageFix"/>
<feColorMatrix in="SourceAlpha" type="matrix" values="0 0 0 0 0 0 0 0 0 0 0 0 0 0 0 0 0 0 127 0" result="hardAlpha"/>
<feOffset/>
<feGaussianBlur stdDeviation="7"/>
<feComposite in2="hardAlpha" operator="out"/>
<feColorMatrix type="matrix" values="0 0 0 0 0.0470588 0 0 0 0 0.215686 0 0 0 0 0.811765 0 0 0 1 0"/>
<feBlend mode="normal" in2="BackgroundImageFix" result="effect1_dropShadow_116_8345"/>
<feBlend mode="normal" in="SourceGraphic" in2="effect1_dropShadow_116_8345" result="shape"/>
<feColorMatrix in="SourceAlpha" type="matrix" values="0 0 0 0 0 0 0 0 0 0 0 0 0 0 0 0 0 0 127 0" result="hardAlpha"/>
<feOffset/>
<feGaussianBlur stdDeviation="12"/>
<feComposite in2="hardAlpha" operator="arithmetic" k2="-1" k3="1"/>
<feColorMatrix type="matrix" values="0 0 0 0 0.0470588 0 0 0 0 0.215686 0 0 0 0 0.811765 0 0 0 0.4 0"/>
<feBlend mode="normal" in2="shape" result="effect2_innerShadow_116_8345"/>
</filter>
<filter id="filter1_d_116_8345" x="8.5" y="12" width="71" height="71" filterUnits="userSpaceOnUse" color-interpolation-filters="sRGB">
<feFlood flood-opacity="0" result="BackgroundImageFix"/>
<feColorMatrix in="SourceAlpha" type="matrix" values="0 0 0 0 0 0 0 0 0 0 0 0 0 0 0 0 0 0 127 0" result="hardAlpha"/>
<feOffset dy="3.5"/>
<feGaussianBlur stdDeviation="2.75"/>
<feColorMatrix type="matrix" values="0 0 0 0 0 0 0 0 0 0 0 0 0 0 0 0 0 0 0.02 0"/>
<feBlend mode="normal" in2="BackgroundImageFix" result="effect1_dropShadow_116_8345"/>
<feBlend mode="normal" in="SourceGraphic" in2="effect1_dropShadow_116_8345" result="shape"/>
</filter>
<linearGradient id="paint0_linear_116_8345" x1="44" y1="13.625" x2="86.2485" y2="45.4323" gradientUnits="userSpaceOnUse">
<stop stop-color="#060B28" stop-opacity="0.74"/>
<stop offset="1" stop-color="#0A0E23" stop-opacity="0.71"/>
</linearGradient>
<linearGradient id="paint1_linear_116_8345" x1="74" y1="44" x2="12.0877" y2="44" gradientUnits="userSpaceOnUse">
<stop stop-color="#88D0EF"/>
<stop offset="0.06" stop-color="#74B1CC"/>
<stop offset="0.15" stop-color="#59889C"/>
<stop offset="0.24" stop-color="#3B7188"/>
<stop offset="0.34" stop-color="#59889C"/>
<stop offset="0.56" stop-color="#59889C"/>
<stop offset="1" stop-color="#88D0EF"/>
</linearGradient>
<clipPath id="clip0_116_8345">
<rect x="14" y="14" width="60" height="60" rx="12" fill="white"/>
</clipPath>
</defs>
</svg>
