<svg width="60" height="60" viewBox="0 0 60 60" fill="none" xmlns="http://www.w3.org/2000/svg">
<g filter="url(#filter0_i_116_6705)">
<g clip-path="url(#clip0_116_6705)">
<rect width="60" height="60" rx="12" fill="url(#paint0_linear_116_6705)"/>
<g filter="url(#filter1_d_116_6705)">
<path d="M41.4375 36C41.7469 36 42 36.2531 42 36.5625V38.4375C42 38.7469 41.7469 39 41.4375 39H18.5625C18.2531 39 18 38.7469 18 38.4375V21.5625C18 21.2531 18.2531 21 18.5625 21H20.4375C20.7469 21 21 21.2531 21 21.5625V36H41.4375ZM35.4703 25.4766L31.5 28.125L27.5016 22.7953C27.2625 22.4766 26.775 22.5 26.5688 22.8422L22.5 29.625V34.5H40.5L36.2859 25.6969C36.1359 25.3922 35.7516 25.2891 35.4703 25.4766Z" fill="#0075FF"/>
</g>
</g>
<rect x="0.5" y="0.5" width="59" height="59" rx="11.5" stroke="url(#paint1_linear_116_6705)" style="mix-blend-mode:color-dodge"/>
</g>
<defs>
<filter id="filter0_i_116_6705" x="0" y="0" width="60" height="60" filterUnits="userSpaceOnUse" color-interpolation-filters="sRGB">
<feFlood flood-opacity="0" result="BackgroundImageFix"/>
<feBlend mode="normal" in="SourceGraphic" in2="BackgroundImageFix" result="shape"/>
<feColorMatrix in="SourceAlpha" type="matrix" values="0 0 0 0 0 0 0 0 0 0 0 0 0 0 0 0 0 0 127 0" result="hardAlpha"/>
<feOffset/>
<feGaussianBlur stdDeviation="12"/>
<feComposite in2="hardAlpha" operator="arithmetic" k2="-1" k3="1"/>
<feColorMatrix type="matrix" values="0 0 0 0 0.0470588 0 0 0 0 0.215686 0 0 0 0 0.811765 0 0 0 0.4 0"/>
<feBlend mode="normal" in2="shape" result="effect1_innerShadow_116_6705"/>
</filter>
<filter id="filter1_d_116_6705" x="-5.5" y="-2" width="71" height="71" filterUnits="userSpaceOnUse" color-interpolation-filters="sRGB">
<feFlood flood-opacity="0" result="BackgroundImageFix"/>
<feColorMatrix in="SourceAlpha" type="matrix" values="0 0 0 0 0 0 0 0 0 0 0 0 0 0 0 0 0 0 127 0" result="hardAlpha"/>
<feOffset dy="3.5"/>
<feGaussianBlur stdDeviation="2.75"/>
<feColorMatrix type="matrix" values="0 0 0 0 0 0 0 0 0 0 0 0 0 0 0 0 0 0 0.02 0"/>
<feBlend mode="normal" in2="BackgroundImageFix" result="effect1_dropShadow_116_6705"/>
<feBlend mode="normal" in="SourceGraphic" in2="effect1_dropShadow_116_6705" result="shape"/>
</filter>
<linearGradient id="paint0_linear_116_6705" x1="30" y1="-0.374998" x2="72.2485" y2="31.4323" gradientUnits="userSpaceOnUse">
<stop stop-color="#060B28" stop-opacity="0.74"/>
<stop offset="1" stop-color="#0A0E23" stop-opacity="0.71"/>
</linearGradient>
<linearGradient id="paint1_linear_116_6705" x1="60" y1="30" x2="-1.91229" y2="30" gradientUnits="userSpaceOnUse">
<stop stop-color="#88D0EF"/>
<stop offset="0.06" stop-color="#74B1CC"/>
<stop offset="0.15" stop-color="#59889C"/>
<stop offset="0.24" stop-color="#3B7188"/>
<stop offset="0.34" stop-color="#59889C"/>
<stop offset="0.56" stop-color="#59889C"/>
<stop offset="1" stop-color="#88D0EF"/>
</linearGradient>
<clipPath id="clip0_116_6705">
<rect width="60" height="60" rx="12" fill="white"/>
</clipPath>
</defs>
</svg>
