<svg width="106" height="106" viewBox="0 0 106 106" fill="none" xmlns="http://www.w3.org/2000/svg">
<g filter="url(#filter0_d_1104_6161)">
<rect x="24" y="24" width="58" height="58" rx="20" fill="white" fill-opacity="0.2"/>
<rect x="24" y="24" width="58" height="58" rx="20" fill="url(#paint0_linear_1104_6161)"/>
<path d="M48.1251 43.25H43.6251C43.418 43.25 43.2501 43.4179 43.2501 43.625V48.125C43.2501 48.3321 43.418 48.5 43.6251 48.5H48.1251C48.3322 48.5 48.5001 48.3321 48.5001 48.125V43.625C48.5001 43.4179 48.3322 43.25 48.1251 43.25Z" fill="white"/>
<path d="M55.2501 43.25H50.7501C50.543 43.25 50.3751 43.4179 50.3751 43.625V48.125C50.3751 48.3321 50.543 48.5 50.7501 48.5H55.2501C55.4572 48.5 55.6251 48.3321 55.6251 48.125V43.625C55.6251 43.4179 55.4572 43.25 55.2501 43.25Z" fill="white"/>
<path d="M62.3752 43.25H57.8752C57.6681 43.25 57.5002 43.4179 57.5002 43.625V48.125C57.5002 48.3321 57.6681 48.5 57.8752 48.5H62.3752C62.5824 48.5 62.7502 48.3321 62.7502 48.125V43.625C62.7502 43.4179 62.5824 43.25 62.3752 43.25Z" fill="white"/>
<path d="M48.1251 50.3752H43.6251C43.418 50.3752 43.2501 50.5431 43.2501 50.7502V55.2502C43.2501 55.4574 43.418 55.6252 43.6251 55.6252H48.1251C48.3322 55.6252 48.5001 55.4574 48.5001 55.2502V50.7502C48.5001 50.5431 48.3322 50.3752 48.1251 50.3752Z" fill="white"/>
<path d="M55.2501 50.3752H50.7501C50.543 50.3752 50.3751 50.5431 50.3751 50.7502V55.2502C50.3751 55.4574 50.543 55.6252 50.7501 55.6252H55.2501C55.4572 55.6252 55.6251 55.4574 55.6251 55.2502V50.7502C55.6251 50.5431 55.4572 50.3752 55.2501 50.3752Z" fill="white"/>
<path d="M62.3752 50.3752H57.8752C57.6681 50.3752 57.5002 50.5431 57.5002 50.7502V55.2502C57.5002 55.4574 57.6681 55.6252 57.8752 55.6252H62.3752C62.5824 55.6252 62.7502 55.4574 62.7502 55.2502V50.7502C62.7502 50.5431 62.5824 50.3752 62.3752 50.3752Z" fill="white"/>
<path d="M48.1251 57.5002H43.6251C43.418 57.5002 43.2501 57.6681 43.2501 57.8752V62.3752C43.2501 62.5824 43.418 62.7502 43.6251 62.7502H48.1251C48.3322 62.7502 48.5001 62.5824 48.5001 62.3752V57.8752C48.5001 57.6681 48.3322 57.5002 48.1251 57.5002Z" fill="white"/>
<path d="M55.2501 57.5002H50.7501C50.543 57.5002 50.3751 57.6681 50.3751 57.8752V62.3752C50.3751 62.5824 50.543 62.7502 50.7501 62.7502H55.2501C55.4572 62.7502 55.6251 62.5824 55.6251 62.3752V57.8752C55.6251 57.6681 55.4572 57.5002 55.2501 57.5002Z" fill="white"/>
<path d="M62.3752 57.5002H57.8752C57.6681 57.5002 57.5002 57.6681 57.5002 57.8752V62.3752C57.5002 62.5824 57.6681 62.7502 57.8752 62.7502H62.3752C62.5824 62.7502 62.7502 62.5824 62.7502 62.3752V57.8752C62.7502 57.6681 62.5824 57.5002 62.3752 57.5002Z" fill="white"/>
</g>
<defs>
<filter id="filter0_d_1104_6161" x="0" y="0" width="106" height="106" filterUnits="userSpaceOnUse" color-interpolation-filters="sRGB">
<feFlood flood-opacity="0" result="BackgroundImageFix"/>
<feColorMatrix in="SourceAlpha" type="matrix" values="0 0 0 0 0 0 0 0 0 0 0 0 0 0 0 0 0 0 127 0" result="hardAlpha"/>
<feOffset/>
<feGaussianBlur stdDeviation="12"/>
<feComposite in2="hardAlpha" operator="out"/>
<feColorMatrix type="matrix" values="0 0 0 0 0.0470588 0 0 0 0 0.215686 0 0 0 0 0.811765 0 0 0 1 0"/>
<feBlend mode="normal" in2="BackgroundImageFix" result="effect1_dropShadow_1104_6161"/>
<feBlend mode="normal" in="SourceGraphic" in2="effect1_dropShadow_1104_6161" result="shape"/>
</filter>
<linearGradient id="paint0_linear_1104_6161" x1="24" y1="82" x2="82" y2="82" gradientUnits="userSpaceOnUse">
<stop stop-color="#007DF0"/>
<stop offset="1" stop-color="#653AC1"/>
</linearGradient>
</defs>
</svg>
