<svg width="58" height="58" viewBox="0 0 58 58" fill="none" xmlns="http://www.w3.org/2000/svg">
<rect width="58" height="58" rx="20" fill="white" fill-opacity="0.2"/>
<rect width="58" height="58" rx="20" fill="url(#paint0_linear_116_6546)"/>
<path d="M17 23C17 23 17 20 20 20H38C38 20 41 20 41 23V32C41 32 41 35 38 35H32C32 36.0005 32.1245 36.7505 32.375 37.25H33.5C33.6989 37.25 33.8897 37.329 34.0303 37.4697C34.171 37.6103 34.25 37.8011 34.25 38C34.25 38.1989 34.171 38.3897 34.0303 38.5303C33.8897 38.671 33.6989 38.75 33.5 38.75H24.5C24.3011 38.75 24.1103 38.671 23.9697 38.5303C23.829 38.3897 23.75 38.1989 23.75 38C23.75 37.8011 23.829 37.6103 23.9697 37.4697C24.1103 37.329 24.3011 37.25 24.5 37.25H25.625C25.8755 36.7505 26 36.0005 26 35H20C20 35 17 35 17 32V23ZM19.097 21.7175C18.9322 21.8322 18.8008 21.9885 18.716 22.1705C18.5881 22.4347 18.5147 22.7219 18.5 23.015V32C18.5 32.4875 18.617 32.753 18.7175 32.903C18.8225 33.0605 18.9725 33.185 19.1705 33.284C19.4233 33.4065 19.6973 33.4793 19.9775 33.4985L20.015 33.5H38C38.4875 33.5 38.753 33.383 38.903 33.2825C39.0678 33.1678 39.1992 33.0115 39.284 32.8295C39.4065 32.5767 39.4793 32.3027 39.4985 32.0225L39.5 31.985V23C39.5 22.5125 39.383 22.247 39.2825 22.097C39.1678 21.9322 39.0115 21.8007 38.8295 21.716C38.5653 21.5881 38.2781 21.5147 37.985 21.5H20C19.5125 21.5 19.247 21.617 19.097 21.7175Z" fill="white"/>
<defs>
<linearGradient id="paint0_linear_116_6546" x1="0" y1="58" x2="58" y2="58" gradientUnits="userSpaceOnUse">
<stop stop-color="#A331D8"/>
<stop offset="1" stop-color="#3C009E"/>
</linearGradient>
</defs>
</svg>
