<svg width="76" height="76" viewBox="0 0 76 76" fill="none" xmlns="http://www.w3.org/2000/svg">
<g filter="url(#filter0_dd_116_6325)">
<rect x="9" y="5" width="58" height="58" rx="20" fill="white" fill-opacity="0.2"/>
<path d="M26 28C26 28 26 25 29 25H47C47 25 50 25 50 28V37C50 37 50 40 47 40H41C41 41.0005 41.1245 41.7505 41.375 42.25H42.5C42.6989 42.25 42.8897 42.329 43.0303 42.4697C43.171 42.6103 43.25 42.8011 43.25 43C43.25 43.1989 43.171 43.3897 43.0303 43.5303C42.8897 43.671 42.6989 43.75 42.5 43.75H33.5C33.3011 43.75 33.1103 43.671 32.9697 43.5303C32.829 43.3897 32.75 43.1989 32.75 43C32.75 42.8011 32.829 42.6103 32.9697 42.4697C33.1103 42.329 33.3011 42.25 33.5 42.25H34.625C34.8755 41.7505 35 41.0005 35 40H29C29 40 26 40 26 37V28ZM28.097 26.7175C27.9322 26.8322 27.8008 26.9885 27.716 27.1705C27.5881 27.4347 27.5147 27.7219 27.5 28.015V37C27.5 37.4875 27.617 37.753 27.7175 37.903C27.8225 38.0605 27.9725 38.185 28.1705 38.284C28.4233 38.4065 28.6973 38.4793 28.9775 38.4985L29.015 38.5H47C47.4875 38.5 47.753 38.383 47.903 38.2825C48.0678 38.1678 48.1992 38.0115 48.284 37.8295C48.4065 37.5767 48.4793 37.3027 48.4985 37.0225L48.5 36.985V28C48.5 27.5125 48.383 27.247 48.2825 27.097C48.1678 26.9322 48.0115 26.8007 47.8295 26.716C47.5653 26.5881 47.2781 26.5147 46.985 26.5H29C28.5125 26.5 28.247 26.617 28.097 26.7175Z" fill="white"/>
</g>
<defs>
<filter id="filter0_dd_116_6325" x="0" y="0" width="76" height="76" filterUnits="userSpaceOnUse" color-interpolation-filters="sRGB">
<feFlood flood-opacity="0" result="BackgroundImageFix"/>
<feColorMatrix in="SourceAlpha" type="matrix" values="0 0 0 0 0 0 0 0 0 0 0 0 0 0 0 0 0 0 127 0" result="hardAlpha"/>
<feOffset dy="4"/>
<feGaussianBlur stdDeviation="4.5"/>
<feColorMatrix type="matrix" values="0 0 0 0 0.921569 0 0 0 0 0.992157 0 0 0 0 1 0 0 0 0.11 0"/>
<feBlend mode="normal" in2="BackgroundImageFix" result="effect1_dropShadow_116_6325"/>
<feColorMatrix in="SourceAlpha" type="matrix" values="0 0 0 0 0 0 0 0 0 0 0 0 0 0 0 0 0 0 127 0" result="hardAlpha"/>
<feOffset/>
<feGaussianBlur stdDeviation="1"/>
<feColorMatrix type="matrix" values="0 0 0 0 0.921569 0 0 0 0 0.992157 0 0 0 0 1 0 0 0 0.12 0"/>
<feBlend mode="normal" in2="effect1_dropShadow_116_6325" result="effect2_dropShadow_116_6325"/>
<feBlend mode="normal" in="SourceGraphic" in2="effect2_dropShadow_116_6325" result="shape"/>
</filter>
</defs>
</svg>
