<svg width="60" height="60" viewBox="0 0 60 60" fill="none" xmlns="http://www.w3.org/2000/svg">
<g filter="url(#filter0_i_116_6679)">
<g clip-path="url(#clip0_116_6679)">
<rect width="60" height="60" rx="12" fill="url(#paint0_linear_116_6679)"/>
<path d="M33.5924 21.0267C32.6802 20.0419 31.4062 19.4995 29.9999 19.4995C28.5862 19.4995 27.3079 20.0386 26.3999 21.0173C25.4821 22.0069 25.0349 23.3517 25.1399 24.8039C25.348 27.6689 27.5282 29.9995 29.9999 29.9995C32.4716 29.9995 34.648 27.6694 34.8595 24.8048C34.9659 23.3658 34.5159 22.0237 33.5924 21.0267Z" fill="#0075FF"/>
<path d="M38.2499 40.4985H21.7499C21.5339 40.5013 21.3201 40.456 21.1238 40.3657C20.9276 40.2755 20.7539 40.1426 20.6155 39.9768C20.3108 39.6126 20.188 39.1153 20.279 38.6123C20.6746 36.4176 21.9093 34.574 23.8499 33.2798C25.574 32.1309 27.7579 31.4985 29.9999 31.4985C32.2419 31.4985 34.4258 32.1313 36.1499 33.2798C38.0905 34.5735 39.3252 36.4171 39.7208 38.6118C39.8118 39.1148 39.689 39.6121 39.3843 39.9763C39.2459 40.1422 39.0723 40.2752 38.876 40.3655C38.6798 40.4558 38.4659 40.5013 38.2499 40.4985Z" fill="#0075FF"/>
</g>
<rect x="0.5" y="0.5" width="59" height="59" rx="11.5" stroke="url(#paint1_linear_116_6679)" style="mix-blend-mode:color-dodge"/>
</g>
<defs>
<filter id="filter0_i_116_6679" x="0" y="0" width="60" height="60" filterUnits="userSpaceOnUse" color-interpolation-filters="sRGB">
<feFlood flood-opacity="0" result="BackgroundImageFix"/>
<feBlend mode="normal" in="SourceGraphic" in2="BackgroundImageFix" result="shape"/>
<feColorMatrix in="SourceAlpha" type="matrix" values="0 0 0 0 0 0 0 0 0 0 0 0 0 0 0 0 0 0 127 0" result="hardAlpha"/>
<feOffset/>
<feGaussianBlur stdDeviation="12"/>
<feComposite in2="hardAlpha" operator="arithmetic" k2="-1" k3="1"/>
<feColorMatrix type="matrix" values="0 0 0 0 0.0470588 0 0 0 0 0.215686 0 0 0 0 0.811765 0 0 0 0.4 0"/>
<feBlend mode="normal" in2="shape" result="effect1_innerShadow_116_6679"/>
</filter>
<linearGradient id="paint0_linear_116_6679" x1="30" y1="-0.374998" x2="72.2485" y2="31.4323" gradientUnits="userSpaceOnUse">
<stop stop-color="#060B28" stop-opacity="0.74"/>
<stop offset="1" stop-color="#0A0E23" stop-opacity="0.71"/>
</linearGradient>
<linearGradient id="paint1_linear_116_6679" x1="60" y1="30" x2="-1.91229" y2="30" gradientUnits="userSpaceOnUse">
<stop stop-color="#88D0EF"/>
<stop offset="0.06" stop-color="#74B1CC"/>
<stop offset="0.15" stop-color="#59889C"/>
<stop offset="0.24" stop-color="#3B7188"/>
<stop offset="0.34" stop-color="#59889C"/>
<stop offset="0.56" stop-color="#59889C"/>
<stop offset="1" stop-color="#88D0EF"/>
</linearGradient>
<clipPath id="clip0_116_6679">
<rect width="60" height="60" rx="12" fill="white"/>
</clipPath>
</defs>
</svg>
