<svg width="76" height="76" viewBox="0 0 76 76" fill="none" xmlns="http://www.w3.org/2000/svg">
<g filter="url(#filter0_dd_116_6310)">
<rect x="9" y="5" width="58" height="58" rx="20" fill="white" fill-opacity="0.2"/>
<path fill-rule="evenodd" clip-rule="evenodd" d="M38 22C36.965 22 35.2355 22.3975 33.608 22.84C31.943 23.29 30.2645 23.8225 29.2775 24.145C28.8648 24.2813 28.499 24.5312 28.222 24.8661C27.945 25.2009 27.768 25.6071 27.7115 26.038C26.8175 32.7535 28.892 37.7305 31.409 41.023C32.4764 42.4314 33.749 43.6717 35.1845 44.7025C35.7635 45.112 36.3005 45.4255 36.7565 45.64C37.1765 45.838 37.628 46 38 46C38.372 46 38.822 45.838 39.2435 45.64C39.7932 45.3728 40.3191 45.0592 40.8155 44.7025C42.251 43.6718 43.5237 42.4315 44.591 41.023C47.108 37.7305 49.1825 32.7535 48.2885 26.038C48.2321 25.6069 48.0552 25.2005 47.7782 24.8653C47.5012 24.5302 47.1353 24.28 46.7225 24.1435C45.2897 23.6737 43.8458 23.2386 42.392 22.8385C40.7645 22.399 39.035 22 38 22ZM38 29.5C38.5314 29.4992 39.0459 29.6865 39.4524 30.0287C39.8589 30.3709 40.1311 30.8459 40.221 31.3696C40.3108 31.8933 40.2124 32.4319 39.9432 32.89C39.6739 33.3481 39.2513 33.6962 38.75 33.8725L39.3275 36.8575C39.3485 36.9661 39.3453 37.0779 39.318 37.1851C39.2907 37.2923 39.24 37.3921 39.1696 37.4774C39.0993 37.5627 39.0109 37.6313 38.9108 37.6785C38.8108 37.7256 38.7016 37.75 38.591 37.75H37.409C37.2986 37.7498 37.1895 37.7252 37.0897 37.678C36.9898 37.6307 36.9016 37.562 36.8314 37.4768C36.7612 37.3915 36.7107 37.2918 36.6835 37.1847C36.6562 37.0777 36.653 36.9659 36.674 36.8575L37.25 33.8725C36.7488 33.6962 36.3261 33.3481 36.0569 32.89C35.7876 32.4319 35.6892 31.8933 35.779 31.3696C35.8689 30.8459 36.1412 30.3709 36.5477 30.0287C36.9542 29.6865 37.4686 29.4992 38 29.5Z" fill="white"/>
</g>
<defs>
<filter id="filter0_dd_116_6310" x="0" y="0" width="76" height="76" filterUnits="userSpaceOnUse" color-interpolation-filters="sRGB">
<feFlood flood-opacity="0" result="BackgroundImageFix"/>
<feColorMatrix in="SourceAlpha" type="matrix" values="0 0 0 0 0 0 0 0 0 0 0 0 0 0 0 0 0 0 127 0" result="hardAlpha"/>
<feOffset dy="4"/>
<feGaussianBlur stdDeviation="4.5"/>
<feColorMatrix type="matrix" values="0 0 0 0 0.921569 0 0 0 0 0.992157 0 0 0 0 1 0 0 0 0.11 0"/>
<feBlend mode="normal" in2="BackgroundImageFix" result="effect1_dropShadow_116_6310"/>
<feColorMatrix in="SourceAlpha" type="matrix" values="0 0 0 0 0 0 0 0 0 0 0 0 0 0 0 0 0 0 127 0" result="hardAlpha"/>
<feOffset/>
<feGaussianBlur stdDeviation="1"/>
<feColorMatrix type="matrix" values="0 0 0 0 0.921569 0 0 0 0 0.992157 0 0 0 0 1 0 0 0 0.12 0"/>
<feBlend mode="normal" in2="effect1_dropShadow_116_6310" result="effect2_dropShadow_116_6310"/>
<feBlend mode="normal" in="SourceGraphic" in2="effect2_dropShadow_116_6310" result="shape"/>
</filter>
</defs>
</svg>
