<svg width="58" height="58" viewBox="0 0 58 58" fill="none" xmlns="http://www.w3.org/2000/svg">
<rect width="58" height="58" rx="20" fill="white" fill-opacity="0.2"/>
<rect width="58" height="58" rx="20" fill="url(#paint0_linear_116_6532)"/>
<path fill-rule="evenodd" clip-rule="evenodd" d="M29 17C27.965 17 26.2355 17.3975 24.608 17.84C22.943 18.29 21.2645 18.8225 20.2775 19.145C19.8648 19.2813 19.499 19.5312 19.222 19.8661C18.945 20.2009 18.768 20.6071 18.7115 21.038C17.8175 27.7535 19.892 32.7305 22.409 36.023C23.4764 37.4314 24.749 38.6717 26.1845 39.7025C26.7635 40.112 27.3005 40.4255 27.7565 40.64C28.1765 40.838 28.628 41 29 41C29.372 41 29.822 40.838 30.2435 40.64C30.7932 40.3728 31.3191 40.0592 31.8155 39.7025C33.251 38.6718 34.5237 37.4315 35.591 36.023C38.108 32.7305 40.1825 27.7535 39.2885 21.038C39.2321 20.6069 39.0552 20.2005 38.7782 19.8653C38.5012 19.5302 38.1353 19.28 37.7225 19.1435C36.2897 18.6737 34.8458 18.2386 33.392 17.8385C31.7645 17.399 30.035 17 29 17ZM29 24.5C29.5314 24.4992 30.0459 24.6865 30.4524 25.0287C30.8589 25.3709 31.1311 25.8459 31.221 26.3696C31.3108 26.8933 31.2124 27.4319 30.9432 27.89C30.6739 28.3481 30.2513 28.6962 29.75 28.8725L30.3275 31.8575C30.3485 31.9661 30.3453 32.0779 30.318 32.1851C30.2907 32.2923 30.24 32.3921 30.1696 32.4774C30.0993 32.5627 30.0109 32.6313 29.9108 32.6785C29.8108 32.7256 29.7016 32.75 29.591 32.75H28.409C28.2986 32.7498 28.1895 32.7252 28.0897 32.678C27.9898 32.6307 27.9016 32.562 27.8314 32.4768C27.7612 32.3915 27.7107 32.2918 27.6835 32.1847C27.6562 32.0777 27.653 31.9659 27.674 31.8575L28.25 28.8725C27.7488 28.6962 27.3261 28.3481 27.0569 27.89C26.7876 27.4319 26.6892 26.8933 26.779 26.3696C26.8689 25.8459 27.1412 25.3709 27.5477 25.0287C27.9542 24.6865 28.4686 24.4992 29 24.5Z" fill="white"/>
<defs>
<linearGradient id="paint0_linear_116_6532" x1="0" y1="58" x2="58" y2="58" gradientUnits="userSpaceOnUse">
<stop stop-color="#31D8A4"/>
<stop offset="1" stop-color="#009E7E"/>
</linearGradient>
</defs>
</svg>
