<svg width="58" height="58" viewBox="0 0 58 58" fill="none" xmlns="http://www.w3.org/2000/svg">
<rect width="58" height="58" rx="20" fill="white" fill-opacity="0.2"/>
<rect width="58" height="58" rx="20" fill="url(#paint0_linear_116_6518)"/>
<g clip-path="url(#clip0_116_6518)">
<path d="M29.75 19.25C29.75 18.6533 29.9871 18.081 30.409 17.659C30.831 17.2371 31.4033 17 32 17H38C38.7956 17 39.5587 17.3161 40.1213 17.8787C40.6839 18.4413 41 19.2044 41 20V38C41 38.7956 40.6839 39.5587 40.1213 40.1213C39.5587 40.6839 38.7956 41 38 41H20C19.2044 41 18.4413 40.6839 17.8787 40.1213C17.3161 39.5587 17 38.7956 17 38V20C17 19.2044 17.3161 18.4413 17.8787 17.8787C18.4413 17.3161 19.2044 17 20 17H29C28.529 17.627 28.25 18.4055 28.25 19.25V30.9395L24.281 26.969C24.2113 26.8993 24.1285 26.844 24.0374 26.8062C23.9463 26.7685 23.8486 26.7491 23.75 26.7491C23.6514 26.7491 23.5537 26.7685 23.4626 26.8062C23.3715 26.844 23.2887 26.8993 23.219 26.969C23.1493 27.0387 23.094 27.1215 23.0562 27.2126C23.0185 27.3037 22.9991 27.4014 22.9991 27.5C22.9991 27.5986 23.0185 27.6963 23.0562 27.7874C23.094 27.8785 23.1493 27.9613 23.219 28.031L28.469 33.281C28.5387 33.3508 28.6214 33.4063 28.7125 33.4441C28.8037 33.4819 28.9013 33.5013 29 33.5013C29.0987 33.5013 29.1963 33.4819 29.2874 33.4441C29.3786 33.4063 29.4613 33.3508 29.531 33.281L34.781 28.031C34.9218 27.8902 35.0009 27.6992 35.0009 27.5C35.0009 27.3008 34.9218 27.1098 34.781 26.969C34.6402 26.8282 34.4492 26.7491 34.25 26.7491C34.0508 26.7491 33.8598 26.8282 33.719 26.969L29.75 30.9395V19.25Z" fill="white"/>
</g>
<defs>
<linearGradient id="paint0_linear_116_6518" x1="0" y1="58" x2="58" y2="58" gradientUnits="userSpaceOnUse">
<stop stop-color="#49C8DB"/>
<stop offset="1" stop-color="#007AD3"/>
</linearGradient>
<clipPath id="clip0_116_6518">
<rect width="24" height="24" fill="white" transform="translate(17 17)"/>
</clipPath>
</defs>
</svg>
